<svg width="47" height="47" viewBox="0 0 47 47" fill="none" xmlns="http://www.w3.org/2000/svg">
<rect width="47" height="47" rx="7" fill="#0E243A"/>
<g clip-path="url(#clip0_32_38)">
<path d="M23.5 10C24.1914 10 24.75 10.6424 24.75 11.4375V14.3125H29.4375C30.9922 14.3125 32.25 15.759 32.25 17.5469V29.7656C32.25 31.5535 30.9922 33 29.4375 33H17.5625C16.0078 33 14.75 31.5535 14.75 29.7656V17.5469C14.75 15.759 16.0078 14.3125 17.5625 14.3125H22.25V11.4375C22.25 10.6424 22.8086 10 23.5 10ZM19.125 27.25C18.7812 27.25 18.5 27.5734 18.5 27.9688C18.5 28.3641 18.7812 28.6875 19.125 28.6875H20.375C20.7188 28.6875 21 28.3641 21 27.9688C21 27.5734 20.7188 27.25 20.375 27.25H19.125ZM22.875 27.25C22.5312 27.25 22.25 27.5734 22.25 27.9688C22.25 28.3641 22.5312 28.6875 22.875 28.6875H24.125C24.4688 28.6875 24.75 28.3641 24.75 27.9688C24.75 27.5734 24.4688 27.25 24.125 27.25H22.875ZM26.625 27.25C26.2812 27.25 26 27.5734 26 27.9688C26 28.3641 26.2812 28.6875 26.625 28.6875H27.875C28.2188 28.6875 28.5 28.3641 28.5 27.9688C28.5 27.5734 28.2188 27.25 27.875 27.25H26.625ZM21.3125 21.5C21.3125 21.0234 21.1479 20.5664 20.8549 20.2294C20.5618 19.8924 20.1644 19.7031 19.75 19.7031C19.3356 19.7031 18.9382 19.8924 18.6451 20.2294C18.3521 20.5664 18.1875 21.0234 18.1875 21.5C18.1875 21.9766 18.3521 22.4336 18.6451 22.7706C18.9382 23.1076 19.3356 23.2969 19.75 23.2969C20.1644 23.2969 20.5618 23.1076 20.8549 22.7706C21.1479 22.4336 21.3125 21.9766 21.3125 21.5ZM27.25 23.2969C27.6644 23.2969 28.0618 23.1076 28.3549 22.7706C28.6479 22.4336 28.8125 21.9766 28.8125 21.5C28.8125 21.0234 28.6479 20.5664 28.3549 20.2294C28.0618 19.8924 27.6644 19.7031 27.25 19.7031C26.8356 19.7031 26.4382 19.8924 26.1451 20.2294C25.8521 20.5664 25.6875 21.0234 25.6875 21.5C25.6875 21.9766 25.8521 22.4336 26.1451 22.7706C26.4382 23.1076 26.8356 23.2969 27.25 23.2969ZM12.875 20.0625H13.5V28.6875H12.875C11.8398 28.6875 11 27.7217 11 26.5312V22.2188C11 21.0283 11.8398 20.0625 12.875 20.0625ZM34.125 20.0625C35.1602 20.0625 36 21.0283 36 22.2188V26.5312C36 27.7217 35.1602 28.6875 34.125 28.6875H33.5V20.0625H34.125Z" fill="white"/>
</g>
<defs>
<clipPath id="clip0_32_38">
<rect width="25" height="23" fill="white" transform="translate(11 10)"/>
</clipPath>
</defs>
</svg>
