<svg width="47" height="47" viewBox="0 0 47 47" fill="none" xmlns="http://www.w3.org/2000/svg">
<rect width="47" height="47" rx="7" fill="#258AFF"/>
<path d="M26.675 26.4242L21.3996 13.4239C21.3054 13.1884 21.117 13 20.8343 13H19.1858C18.9502 13 18.6676 13.1884 18.5734 13.4239L14.0448 25.7991C13.8927 26.2148 13.6309 26.8128 14.0448 26.97C14.0777 26.9825 14.1118 26.9894 14.1458 26.9894H15.9828C16.2183 26.9894 16.5009 26.801 16.5951 26.5184L16.9801 25.4097C17.4546 24.0431 18.7425 23.127 20.189 23.127C21.5751 23.127 22.8221 23.9691 23.3399 25.2548L23.8489 26.5184C23.9431 26.7539 24.1786 26.9894 24.4612 26.9894H26.2982C26.5808 26.9894 26.7692 26.6597 26.675 26.4242ZM20.1718 20.5364C19.4928 20.5364 19.0255 19.8546 19.2704 19.2212C19.5831 18.4124 20.7205 18.3928 21.0609 19.1905C21.3329 19.8281 20.8651 20.5364 20.1718 20.5364Z" fill="white"/>
<g clip-path="url(#clip0_32_39)">
<path d="M27.2565 36.9998C26.9953 36.9998 26.7445 36.8954 26.5593 36.7088L21.2891 31.399C20.9039 31.011 20.9039 30.3818 21.2891 29.9937C21.6741 29.6056 22.2987 29.6053 22.6837 29.9937L27.216 34.5598L36.2784 24.3318C36.641 23.9229 37.2643 23.8867 37.6708 24.2523C38.0771 24.6179 38.1126 25.2461 37.7497 25.6555L27.9921 36.6678C27.8115 36.8716 27.5554 36.9915 27.2843 36.9994C27.275 36.9996 27.2658 36.9998 27.2565 36.9998Z" fill="white"/>
</g>
<defs>
<clipPath id="clip0_32_39">
<rect x="21" y="24" width="17" height="13" rx="6.5" fill="white"/>
</clipPath>
</defs>
</svg>
