<svg width="17" height="17" viewBox="0 0 17 17" fill="none" xmlns="http://www.w3.org/2000/svg">
<path fill-rule="evenodd" clip-rule="evenodd" d="M8.5 0C3.80375 0 0 3.80375 0 8.5C0 13.1962 3.80375 17 8.5 17C13.1962 17 17 13.1962 17 8.5C17 3.80375 13.1962 0 8.5 0ZM6.80009 12.3251L11.9001 8.50009L6.80009 4.67509V12.3251ZM1.69991 8.49991C1.69991 12.2484 4.75141 15.2999 8.49991 15.2999C12.2484 15.2999 15.2999 12.2484 15.2999 8.49991C15.2999 4.75141 12.2484 1.69991 8.49991 1.69991C4.75141 1.69991 1.69991 4.75141 1.69991 8.49991Z" fill="white"/>
</svg>
