<svg width="47" height="47" viewBox="0 0 47 47" fill="none" xmlns="http://www.w3.org/2000/svg">
<rect width="47" height="47" rx="7" fill="#F59A00"/>
<path d="M33.8086 19.7011C34.4296 19.7011 34.7579 19.3613 34.7579 18.7402V15.8691C34.7579 13.4551 33.539 12.248 31.0781 12.248H28.2187C27.5976 12.248 27.2578 12.5879 27.2578 13.1855C27.2578 13.7949 27.5976 14.1348 28.2187 14.1348H31.0547C32.2031 14.1348 32.8711 14.7559 32.8711 15.9746V18.7402C32.8711 19.3613 33.2109 19.7011 33.8086 19.7011ZM14.1914 19.7011C14.8008 19.7011 15.1289 19.3613 15.1289 18.7402V15.9746C15.1289 14.7559 15.7851 14.1348 16.957 14.1348H19.7929C20.4023 14.1348 20.7422 13.7949 20.7422 13.1855C20.7422 12.5879 20.4023 12.248 19.7929 12.248H16.9218C14.4844 12.248 13.2422 13.4551 13.2422 15.8691V18.7402C13.2422 19.3613 13.582 19.7011 14.1914 19.7011ZM19.1484 29.5918H28.6172C29.4726 29.5918 29.8594 29.2637 29.8594 28.4082V17.5801C29.8594 16.7246 29.4726 16.3965 28.6172 16.3965H19.1484C18.2929 16.3965 17.9062 16.7246 17.9062 17.5801V28.4082C17.9062 29.2637 18.2929 29.5918 19.1484 29.5918ZM19.7929 28.0683C19.5586 28.0683 19.4414 27.9629 19.4414 27.6933V18.3066C19.4414 18.0371 19.5586 17.9199 19.7929 17.9199H27.9726C28.207 17.9199 28.3242 18.0371 28.3242 18.3066V27.6933C28.3242 27.9629 28.207 28.0683 27.9726 28.0683H19.7929ZM21.4336 20.9551H26.332C26.7187 20.9551 26.9765 20.6972 26.9765 20.334C26.9765 19.9472 26.7187 19.6894 26.332 19.6894H21.4336C21.0468 19.6894 20.8008 19.9472 20.8008 20.334C20.8008 20.6972 21.0468 20.9551 21.4336 20.9551ZM21.4336 23.4746H24.0586C24.4336 23.4746 24.6914 23.2051 24.6914 22.8418C24.6914 22.4668 24.4336 22.1972 24.0586 22.1972H21.4336C21.0468 22.1972 20.8008 22.4668 20.8008 22.8418C20.8008 23.2051 21.0468 23.4746 21.4336 23.4746ZM16.9218 33.7519H19.7929C20.4023 33.7519 20.7422 33.4121 20.7422 32.8144C20.7422 32.2051 20.4023 31.8652 19.7929 31.8652H16.957C15.7851 31.8652 15.1289 31.2441 15.1289 30.0254V27.2598C15.1289 26.6387 14.789 26.2988 14.1914 26.2988C13.5703 26.2988 13.2422 26.6387 13.2422 27.2598V30.1191C13.2422 32.5449 14.4844 33.7519 16.9218 33.7519ZM28.2187 33.7519H31.0781C33.539 33.7519 34.7579 32.5332 34.7579 30.1191V27.2598C34.7579 26.6387 34.418 26.2988 33.8086 26.2988C33.1992 26.2988 32.8711 26.6387 32.8711 27.2598V30.0254C32.8711 31.2441 32.2031 31.8652 31.0547 31.8652H28.2187C27.5976 31.8652 27.2578 32.2051 27.2578 32.8144C27.2578 33.4121 27.5976 33.7519 28.2187 33.7519Z" fill="white"/>
</svg>
