<svg width="47" height="47" viewBox="0 0 47 47" fill="none" xmlns="http://www.w3.org/2000/svg">
<rect width="47" height="47" rx="7" fill="#F04037"/>
<path d="M18.7008 36.2572C19.2449 36.2572 19.6148 35.9742 20.2677 35.3866L24.0328 32.0459H31.008C34.2508 32.0459 35.9917 30.2505 35.9917 27.0621V18.7267C35.9917 15.5384 34.2508 13.7429 31.008 13.7429H16.9924C13.7605 13.7429 12.0085 15.5275 12.0085 18.7267V27.0621C12.0085 30.2613 13.7605 32.0459 16.9924 32.0459H17.5146V34.8752C17.5146 35.7131 17.9499 36.2572 18.7008 36.2572ZM19.1469 34.2658V31.1101C19.1469 30.5225 18.9293 30.294 18.3308 30.294H17.0032C14.7943 30.294 13.7605 29.1732 13.7605 27.0513V18.7267C13.7605 16.6048 14.7943 15.4949 17.0032 15.4949H31.008C33.206 15.4949 34.2398 16.6048 34.2398 18.7267V27.0513C34.2398 29.1732 33.206 30.294 31.008 30.294H23.9567C23.3581 30.294 23.0426 30.381 22.629 30.8054L19.1469 34.2658ZM23.9784 27.8891C24.5551 27.8891 24.8598 27.5083 24.8598 26.9098V19.8476H27.5694C27.9829 19.8476 28.2875 19.5755 28.2875 19.1402C28.2875 18.6941 27.9829 18.422 27.5694 18.422H20.4418C20.0283 18.422 19.7236 18.6941 19.7236 19.1402C19.7236 19.5755 20.0283 19.8476 20.4418 19.8476H23.1187V26.9098C23.1187 27.4865 23.4234 27.8891 23.9784 27.8891Z" fill="white"/>
</svg>
